<svg xmlns="http://www.w3.org/2000/svg" xmlns:xlink="http://www.w3.org/1999/xlink" version="1.1" id="Layer_1" x="0px" y="0px" style="enable-background:new 0 0 276 48.7;" xml:space="preserve" viewBox="0.7 0.5 274.3 47.8">
<style type="text/css">
	.st0{fill:#010101;}
</style>
<g>
	<path class="st0" d="M44.7,1.5v46.1H33v-5.8c-1.5,2-3.4,3.6-5.9,4.7s-5,1.7-7.9,1.7c-3.6,0-6.8-0.8-9.6-2.3   c-2.8-1.5-4.9-3.8-6.5-6.7c-1.6-3-2.4-6.5-2.4-10.6v-27h11.6v25.4c0,3.7,0.9,6.5,2.7,8.4c1.8,2,4.3,3,7.5,3c3.2,0,5.7-1,7.6-3   c1.8-2,2.7-4.8,2.7-8.4V1.5H44.7z"/>
	<path class="st0" d="M95,6c3.4,3.5,5.1,8.3,5.1,14.5v27H88.5V22.1c0-3.7-0.9-6.5-2.7-8.4c-1.8-2-4.3-3-7.5-3c-3.2,0-5.8,1-7.6,3   c-1.9,2-2.8,4.8-2.8,8.4v25.4H56.2V1.5h11.6v5.7c1.6-2,3.5-3.6,5.9-4.7c2.4-1.1,5.1-1.7,7.9-1.7C87.2,0.8,91.7,2.6,95,6z"/>
	<path class="st0" d="M118.6,46.3c-3-1.4-5.4-3.2-7.1-5.5c-1.7-2.3-2.7-4.9-2.9-7.7h11.7c0.2,1.8,1.1,3.2,2.6,4.4   c1.5,1.2,3.4,1.7,5.7,1.7c2.2,0,4-0.4,5.2-1.3c1.2-0.9,1.9-2,1.9-3.4c0-1.5-0.8-2.6-2.3-3.4c-1.5-0.7-3.9-1.6-7.3-2.5   c-3.4-0.8-6.3-1.7-8.4-2.6c-2.2-0.9-4.1-2.2-5.7-4.1c-1.6-1.8-2.4-4.3-2.4-7.4c0-2.5,0.7-4.9,2.2-7c1.5-2.1,3.6-3.8,6.3-5   c2.7-1.2,6-1.8,9.7-1.8c5.5,0,9.9,1.4,13.1,4.1c3.3,2.7,5.1,6.4,5.4,11.1h-11.1c-0.2-1.8-0.9-3.3-2.3-4.4c-1.4-1.1-3.2-1.6-5.4-1.6   c-2.1,0-3.7,0.4-4.9,1.2c-1.1,0.8-1.7,1.9-1.7,3.2c0,1.6,0.8,2.7,2.3,3.5c1.6,0.8,4,1.6,7.2,2.5c3.3,0.8,6.1,1.7,8.2,2.6   c2.2,0.9,4,2.3,5.6,4.1c1.6,1.9,2.4,4.3,2.5,7.4c0,2.7-0.7,5-2.2,7.2c-1.5,2.1-3.6,3.8-6.3,4.9c-2.7,1.2-5.9,1.8-9.6,1.8   C125,48.3,121.6,47.6,118.6,46.3z"/>
	<path class="st0" d="M199,28h-33.7c0.3,3.3,1.4,5.9,3.5,7.8c2.1,1.9,4.6,2.8,7.6,2.8c4.3,0,7.4-1.9,9.2-5.6h12.6   c-1.3,4.4-3.9,8.1-7.7,10.9c-3.8,2.9-8.4,4.3-13.9,4.3c-4.4,0-8.4-1-11.9-3c-3.5-2-6.3-4.8-8.2-8.4c-2-3.6-3-7.8-3-12.5   c0-4.8,1-9,2.9-12.6c1.9-3.6,4.7-6.4,8.1-8.3c3.5-1.9,7.5-2.9,12.1-2.9c4.4,0,8.3,0.9,11.8,2.8c3.5,1.9,6.2,4.6,8.1,8   c1.9,3.5,2.9,7.4,2.9,11.9C199.3,25.2,199.2,26.7,199,28z M187.3,20.2c-0.1-3-1.1-5.4-3.2-7.2c-2.1-1.8-4.7-2.7-7.7-2.7   c-2.9,0-5.3,0.9-7.3,2.6c-2,1.7-3.2,4.2-3.6,7.3H187.3z"/>
	<path class="st0" d="M246.6,6c3.4,3.5,5.1,8.3,5.1,14.5v27h-11.6V22.1c0-3.7-0.9-6.5-2.7-8.4c-1.8-2-4.3-3-7.5-3   c-3.2,0-5.8,1-7.6,3c-1.9,2-2.8,4.8-2.8,8.4v25.4h-11.6V1.5h11.6v5.7c1.6-2,3.5-3.6,5.9-4.7c2.4-1.1,5.1-1.7,7.9-1.7   C238.8,0.8,243.2,2.6,246.6,6z"/>
	<path class="st0" d="M262.7,46.2c-1.4-1.3-2-2.9-2-4.9c0-1.9,0.7-3.6,2-4.9c1.4-1.3,3.1-2,5.2-2c2.1,0,3.7,0.7,5.1,2   c1.3,1.3,2,2.9,2,4.9c0,1.9-0.7,3.6-2,4.9c-1.3,1.3-3,2-5.1,2C265.8,48.1,264.1,47.5,262.7,46.2z"/>
</g>
</svg>